<svg width="80" height="44" viewBox="0 0 80 44" fill="none" xmlns="http://www.w3.org/2000/svg">
<path d="M0 43.2786V30.7215H1.43424C2.49004 30.7215 3.34565 31.5771 3.34565 32.6329V43.2786H0Z" fill="white"/>
<path d="M14.533 43.2787C13.373 43.2787 12.4324 42.338 12.4324 41.178V38.7812C12.4324 37.9901 12.3158 37.3936 12.0813 36.9905C11.8469 36.5887 11.4671 36.3886 10.9392 36.3886C10.3029 36.3886 9.80795 36.6134 9.45556 37.0632C9.10179 37.5129 8.92491 38.2602 8.92491 39.3037V43.28H5.68622V33.9067H6.9093C7.86363 33.9067 8.63697 34.6801 8.63697 35.6344H8.67262C8.99622 34.9749 9.45555 34.4867 10.0493 34.1686C10.643 33.8505 11.3231 33.6915 12.0909 33.6915C12.7272 33.6915 13.2715 33.797 13.7281 34.0068C14.1833 34.2166 14.5563 34.4922 14.8429 34.835C15.1308 35.1764 15.3406 35.57 15.4722 36.0129C15.6039 36.4571 15.6697 36.9192 15.6697 37.3977V43.28H14.533V43.2787Z" fill="white"/>
<path d="M24.0174 43.2787H20.3289L16.8571 33.9054H18.5395C19.5994 33.9054 20.5332 34.6061 20.8294 35.6235L22.2719 40.5802H22.3075L23.6924 35.8675C24.0338 34.7048 25.1019 33.9054 26.3141 33.9054H27.4891L24.0174 43.2787Z" fill="white"/>
<path d="M31.5012 39.5368C31.5972 40.173 31.8728 40.6309 32.3294 40.9134C32.7846 41.1959 33.4332 41.3357 34.2723 41.3357C34.6796 41.3357 35.1362 41.2822 35.6394 41.1739C35.6449 41.1739 35.649 41.1712 35.6545 41.1712C36.4031 41.008 37.1148 41.5592 37.1148 42.3257V42.9016C36.5992 43.1059 36.0466 43.2554 35.4598 43.3513C34.8715 43.4473 34.2778 43.4953 33.6786 43.4953C32.8984 43.4953 32.1758 43.3842 31.5108 43.1621C30.8458 42.94 30.2699 42.6191 29.7831 42.1996C29.2978 41.78 28.9166 41.2672 28.641 40.6611C28.3654 40.0551 28.2269 39.3681 28.2269 38.6016C28.2269 37.8351 28.3407 37.2044 28.5683 36.6052C28.7959 36.006 29.1264 35.4904 29.5583 35.0585C29.9902 34.6266 30.5181 34.2907 31.142 34.0507C31.7659 33.8108 32.4734 33.6915 33.2645 33.6915C34.1284 33.6915 34.8592 33.8354 35.4598 34.1234C36.059 34.4113 36.5457 34.798 36.9173 35.2834C37.2889 35.7688 37.559 36.3269 37.7263 36.9562C37.8936 37.5856 37.9786 38.2492 37.9786 38.9444V39.5381H31.5012V39.5368ZM34.6316 36.2898C34.3436 35.9237 33.8884 35.7414 33.2645 35.7414C32.6886 35.7414 32.2567 35.9251 31.9688 36.2898C31.6808 36.6559 31.5122 37.1262 31.4656 37.7021H35.0635C35.0635 37.1262 34.9195 36.6559 34.6316 36.2898Z" fill="white"/>
<path d="M46.6855 41.9295C46.4223 42.3367 46.0795 42.6576 45.6599 42.892C45.2403 43.1265 44.7727 43.2842 44.2572 43.3692C43.7416 43.4528 43.2315 43.4953 42.7283 43.4953C41.9728 43.4953 41.3215 43.457 40.7758 43.3788C40.2301 43.3006 39.7419 43.1896 39.31 43.0456L39.3703 42.2503C39.4279 41.4921 40.1492 40.9793 40.891 41.1479C40.965 41.1644 41.0377 41.1794 41.109 41.1932C41.6122 41.2891 42.0811 41.3371 42.5117 41.3371C43.0752 41.3371 43.4386 41.2631 43.6004 41.1123C43.7622 40.9628 43.8431 40.7859 43.8431 40.5816C43.8431 40.3184 43.7293 40.1168 43.5017 39.9783C43.2741 39.8412 42.9888 39.7233 42.6474 39.6273C42.306 39.5313 41.9372 39.4326 41.5409 39.3311C41.1446 39.2296 40.7758 39.0788 40.4344 38.8814C40.0929 38.6839 39.8077 38.4193 39.5801 38.0902C39.3525 37.7611 39.2387 37.3141 39.2387 36.7506C39.2387 36.2474 39.347 35.8031 39.5623 35.4192C39.7776 35.0352 40.0683 34.7171 40.4344 34.4662C40.8005 34.2139 41.2283 34.022 41.7205 33.8903C42.2128 33.7587 42.7393 33.6929 43.3042 33.6929C43.8691 33.6929 44.4012 33.7354 44.977 33.819C45.5529 33.9027 46.0685 34.0411 46.5237 34.2331L46.4469 34.9187C46.3647 35.6482 45.675 36.1308 44.9551 35.9909C44.951 35.9909 44.9455 35.9896 44.9414 35.9882C44.4738 35.8977 44.0721 35.8538 43.7361 35.8538C43.3166 35.8538 42.9655 35.9046 42.6831 36.0074C42.4006 36.1089 42.2608 36.2748 42.2608 36.5024C42.2608 36.7423 42.3801 36.922 42.62 37.0426C42.86 37.1633 43.1561 37.2675 43.5099 37.358C43.8637 37.4485 44.2503 37.5445 44.6699 37.6459C45.0895 37.7474 45.4761 37.901 45.8299 38.1053C46.1837 38.3096 46.4798 38.5907 46.7198 38.9513C46.9598 39.3105 47.079 39.785 47.079 40.3718C47.079 41.008 46.9474 41.5291 46.6828 41.9363L46.6855 41.9295Z" fill="white"/>
<path d="M54.2695 43.4501C53.9637 43.4803 53.6374 43.4953 53.2891 43.4953C52.018 43.4953 51.1007 43.2348 50.5371 42.7124C49.9736 42.19 49.6911 41.3303 49.6911 40.1305V36.1719H47.8387V33.9054H49.6911V33.1828C49.6911 32.3615 50.2273 31.6361 51.0129 31.3962L52.9285 30.8107V33.9054H55.195V34.6705C55.195 35.5001 54.5231 36.1719 53.6936 36.1719H52.9271V39.6808C52.9271 40.2566 53.0203 40.6762 53.2054 40.9409C53.3919 41.2041 53.7361 41.3371 54.2393 41.3371C54.3476 41.3371 54.4875 41.3248 54.6616 41.3015H54.6671C54.9592 41.2603 55.2238 41.4797 55.2389 41.7745L55.3184 43.3171C54.9221 43.3774 54.5725 43.4213 54.2653 43.4515L54.2695 43.4501Z" fill="white"/>
<path d="M65.3868 43.3774C64.8288 43.4556 64.2323 43.4939 63.5961 43.4939C62.7323 43.4939 61.8725 43.3801 61.0142 43.1525C60.1558 42.9249 59.3798 42.5561 58.6846 42.046C57.9894 41.5359 57.4258 40.8736 56.9939 40.0578C56.562 39.242 56.3467 38.2465 56.3467 37.0714C56.3467 35.98 56.5264 35.0242 56.887 34.2015C57.2462 33.3802 57.7481 32.6933 58.3898 32.1421C59.0315 31.5908 59.787 31.1795 60.6563 30.9094C61.5256 30.6393 62.4759 30.5049 63.5083 30.5049C64.0239 30.5049 64.5669 30.5501 65.1359 30.6393C65.705 30.7298 66.4166 30.8998 67.2681 31.1521L67.194 31.8994C67.1049 32.7988 66.237 33.4063 65.3594 33.1869C65.3306 33.18 65.3005 33.1732 65.2717 33.1663C64.7438 33.047 64.2337 32.9867 63.7428 32.9867C63.1422 32.9867 62.6006 33.0882 62.1152 33.2925C61.6298 33.4968 61.2158 33.7779 60.8743 34.1385C60.5329 34.4977 60.2683 34.9269 60.0832 35.4246C59.8967 35.9224 59.8048 36.4653 59.8048 37.0522C59.8048 37.6761 59.909 38.2342 60.1202 38.725C60.33 39.2173 60.6207 39.6314 60.9923 39.9659C61.3638 40.3019 61.804 40.5597 62.3141 40.7393C62.8241 40.9189 63.3849 41.0094 63.9965 41.0094C64.464 41.0094 64.9467 40.9614 65.4444 40.8654C65.4499 40.8654 65.454 40.8641 65.4595 40.8627C66.3453 40.6899 67.1858 41.3193 67.2407 42.2201L67.2887 42.988C66.5811 43.1676 65.9476 43.2965 65.391 43.3747L65.3868 43.3774Z" fill="white"/>
<path d="M78.6995 40.6433C78.4294 41.2494 78.0523 41.7649 77.5656 42.19C77.0802 42.6164 76.5043 42.94 75.8379 43.1621C75.1729 43.3843 74.4434 43.4953 73.6523 43.4953C72.8611 43.4953 72.1316 43.3843 71.4666 43.1621C70.8016 42.94 70.2257 42.6164 69.7389 42.19C69.2536 41.7649 68.8751 41.248 68.605 40.6433C68.3349 40.0373 68.2005 39.3572 68.2005 38.6016C68.2005 37.8461 68.3349 37.1482 68.605 36.5422C68.8751 35.9361 69.2522 35.4205 69.7389 34.9955C70.2243 34.5704 70.8002 34.2468 71.4666 34.0233C72.1316 33.8012 72.8611 33.6901 73.6523 33.6901C74.4434 33.6901 75.1729 33.8012 75.8379 34.0233C76.5029 34.2454 77.0788 34.569 77.5656 34.9955C78.051 35.4219 78.4294 35.9375 78.6995 36.5422C78.9696 37.1482 79.104 37.8352 79.104 38.6016C79.104 39.3681 78.9696 40.0386 78.6995 40.6433ZM75.2181 36.6765C74.8589 36.1966 74.3365 35.9567 73.6523 35.9567C72.968 35.9567 72.447 36.1966 72.0878 36.6765C71.7285 37.1564 71.5475 37.7927 71.5475 38.5838C71.5475 39.423 71.7367 40.0743 72.1138 40.5364C72.4909 40.9984 73.0037 41.2288 73.6523 41.2288C74.3008 41.2288 74.8123 40.9984 75.1907 40.5364C75.5692 40.0743 75.757 39.4243 75.757 38.5838C75.757 37.7927 75.5774 37.1564 75.2181 36.6765Z" fill="white"/>
<path d="M49.7925 21.93L41.8379 26.4738C40.6764 27.1373 39.2489 27.1329 38.0909 26.4632L29.9077 21.7272C28.7231 21.0415 27.9965 19.7794 28 18.4151L28.0258 9.3132C28.0303 7.77902 28.8556 6.36401 30.1914 5.60092L38.3177 0.958348C39.3832 0.350011 40.6933 0.353569 41.7552 0.968131L49.869 5.66407C51.1915 6.42983 52.0044 7.84038 52 9.3639L51.9751 18.1883C51.9706 19.7341 51.1391 21.1598 49.7925 21.9291V21.93Z" fill="white"/>
<path d="M49.3932 20.7463L41.291 25.4075C40.4523 25.8905 39.4206 25.886 38.5855 25.3977L30.5597 20.7054C29.7094 20.2082 29.1874 19.293 29.1909 18.304L29.223 9.13184C29.2265 8.06458 29.7966 7.08003 30.7189 6.54907L38.6157 2.00789C39.4864 1.50717 40.5563 1.51072 41.4235 2.01767L49.3612 6.65847C50.2346 7.16897 50.7709 8.10905 50.7673 9.12383L50.7353 18.4312C50.7318 19.3882 50.2204 20.2705 49.3941 20.7463H49.3932Z" fill="#6E739F"/>
<path d="M49.7979 8.22379C49.7045 8.05036 49.4893 7.98544 49.3159 8.07882L39.9889 13.0869L30.6629 8.07882C30.4894 7.98544 30.2742 8.05125 30.1808 8.22379C30.0874 8.39722 30.1532 8.61245 30.3258 8.70584L39.6225 13.6979V24.905C39.6225 25.1016 39.7817 25.2608 39.9782 25.2608C40.1748 25.2608 40.334 25.1016 40.334 24.905V13.7095L49.6521 8.70584C49.8255 8.61334 49.8904 8.39722 49.797 8.22379H49.7979Z" fill="white"/>
<path d="M49.6121 21.0977L44.1486 25.2626C43.5163 25.7447 42.6055 25.2938 42.6055 24.4986V14.7288C42.6055 14.1116 42.8937 13.5299 43.3846 13.1564L49.6121 8.40973" fill="#6E739F"/>
<path d="M42.2498 24.6472V14.9413C42.2498 14.0795 42.6518 13.2666 43.3375 12.7437L49.3959 8.12599C49.5525 8.00682 49.7757 8.03706 49.8949 8.19359C50.0141 8.35012 49.9838 8.57335 49.8273 8.69253L43.7501 13.3244C43.253 13.7033 42.9613 14.293 42.9613 14.9182V24.4141C42.9613 24.9495 43.574 25.2528 44.0001 24.9282L49.3968 20.8148C49.5534 20.6956 49.7766 20.7259 49.8958 20.8824C50.0149 21.0389 49.9847 21.2622 49.8282 21.3813L44.2464 25.6361C43.4282 26.2596 42.2506 25.6762 42.2506 24.648L42.2498 24.6472Z" fill="white"/>
<path d="M46.2128 20.1086C45.9157 20.1086 45.6605 20.0134 45.4702 19.8302C45.2291 19.599 45.1011 19.2343 45.1011 18.7772C45.1011 17.4965 46.0963 15.7293 47.3672 14.7536L47.61 14.5793C47.9845 14.3303 48.3384 14.1773 48.6675 14.1231C48.7404 14.1106 48.8089 14.1604 48.8214 14.2325C48.8338 14.3045 48.784 14.3739 48.712 14.3863C48.4247 14.4343 48.0956 14.5766 47.7621 14.799L47.5264 14.968C46.3177 15.8956 45.3679 17.5703 45.3679 18.7772C45.3679 19.1596 45.4675 19.4576 45.6543 19.6381C45.8055 19.7831 46.0091 19.8525 46.259 19.8409C46.332 19.8382 46.3951 19.8952 46.3978 19.969C46.4005 20.0428 46.3435 20.105 46.2697 20.1077C46.2502 20.1077 46.2315 20.1086 46.2128 20.1086Z" fill="white"/>
<path d="M48.4015 15.5701V16.7779C48.4015 16.8588 48.3455 16.9567 48.269 17.0118C48.2414 17.0314 48.213 17.0438 48.1854 17.0492C48.1605 17.0536 48.1374 17.0518 48.116 17.0429C48.0751 17.026 48.0511 16.9851 48.0511 16.9326V15.8218C47.2098 16.5129 46.5507 17.6975 46.5507 18.562C46.5507 19.4861 47.3022 19.6986 48.2263 19.0369C49.1504 18.3752 49.9019 17.0847 49.9019 16.1607C49.9019 15.2962 49.2429 15.0561 48.4015 15.5719V15.5701Z" fill="white"/>
</svg>
