<?xml version="1.0" encoding="UTF-8" standalone="no"?>
<svg
   id="Capa_2"
   data-name="Capa 2"
   viewBox="0 0 887.99 297.55"
   version="1.1"
   sodipodi:docname="logo.svg"
   inkscape:version="1.3.2 (091e20e, 2023-11-25, custom)"
   xmlns:inkscape="http://www.inkscape.org/namespaces/inkscape"
   xmlns:sodipodi="http://sodipodi.sourceforge.net/DTD/sodipodi-0.dtd"
   xmlns="http://www.w3.org/2000/svg"
   xmlns:svg="http://www.w3.org/2000/svg">
  <sodipodi:namedview
     id="namedview27"
     pagecolor="#505050"
     bordercolor="#eeeeee"
     borderopacity="1"
     inkscape:showpageshadow="0"
     inkscape:pageopacity="0"
     inkscape:pagecheckerboard="0"
     inkscape:deskcolor="#505050"
     inkscape:zoom="0.45552316"
     inkscape:cx="625.65425"
     inkscape:cy="107.56863"
     inkscape:window-width="798"
     inkscape:window-height="432"
     inkscape:window-x="793"
     inkscape:window-y="0"
     inkscape:window-maximized="0"
     inkscape:current-layer="g27" />
  <defs
     id="defs1">
    <style
       id="style1">
      .cls-1 {
        fill: #fff;
      }

      .cls-2 {
        isolation: isolate;
      }

      .cls-3 {
        fill: #9bb0cc;
      }
    </style>
  </defs>
  <g
     id="svg1">
    <g
       id="g27">
      <g
         class="cls-2"
         id="g17"
         transform="matrix(2.4622241,0,0,2.4622241,-1298.4818,-310.29128)">
        <path
           class="cls-1"
           d="m 695.59,228.62 h -0.05 v 1.93 h -2.14 v -19.74 h 2.14 v 8.75 h 0.05 c 1.05,-1.77 2.59,-2.66 4.61,-2.66 1.71,0 3.05,0.6 4.02,1.79 0.97,1.19 1.45,2.79 1.45,4.8 0,2.23 -0.54,4.02 -1.63,5.36 -1.08,1.34 -2.57,2.01 -4.45,2.01 -1.76,0 -3.09,-0.75 -4,-2.24 z m -0.05,-5.38 v 1.86 c 0,1.1 0.36,2.04 1.07,2.81 0.72,0.77 1.62,1.15 2.73,1.15 1.29,0 2.31,-0.49 3.04,-1.48 0.73,-0.99 1.1,-2.37 1.1,-4.13 0,-1.48 -0.34,-2.65 -1.03,-3.49 -0.69,-0.84 -1.62,-1.26 -2.79,-1.26 -1.24,0 -2.24,0.43 -2.99,1.3 -0.76,0.86 -1.13,1.95 -1.13,3.25 z"
           id="path4" />
        <path
           class="cls-1"
           d="m 719.69,217.21 -6.13,15.47 c -1.09,2.76 -2.63,4.14 -4.61,4.14 -0.56,0 -1.02,-0.06 -1.39,-0.17 v -1.91 c 0.46,0.16 0.88,0.23 1.26,0.23 1.08,0 1.88,-0.64 2.42,-1.93 l 1.07,-2.53 -5.21,-13.31 h 2.37 l 3.61,10.26 c 0.04,0.13 0.13,0.47 0.27,1.02 h 0.08 c 0.04,-0.21 0.13,-0.54 0.26,-0.99 l 3.79,-10.29 h 2.21 z"
           id="path5" />
        <path
           class="cls-1"
           d="m 729.57,230.55 v -18.67 h 5.31 c 1.61,0 2.89,0.4 3.84,1.19 0.95,0.79 1.42,1.82 1.42,3.09 0,1.06 -0.29,1.98 -0.86,2.76 -0.57,0.78 -1.36,1.34 -2.37,1.67 v 0.05 c 1.26,0.15 2.27,0.62 3.02,1.43 0.76,0.8 1.13,1.85 1.13,3.13 0,1.6 -0.57,2.89 -1.72,3.88 -1.15,0.99 -2.59,1.48 -4.34,1.48 h -5.44 z m 2.19,-16.7 v 6.03 H 734 c 1.2,0 2.14,-0.29 2.83,-0.87 0.69,-0.58 1.03,-1.39 1.03,-2.44 0,-1.81 -1.19,-2.72 -3.58,-2.72 h -2.51 z m 0,8 v 6.72 h 2.97 c 1.28,0 2.28,-0.3 2.99,-0.91 0.71,-0.61 1.06,-1.44 1.06,-2.5 0,-2.2 -1.5,-3.31 -4.51,-3.31 z"
           id="path6" />
        <path
           class="cls-1"
           d="m 757.75,230.55 h -2.67 l -4.3,-7.15 c -0.13,-0.22 -0.27,-0.52 -0.43,-0.92 h -0.05 c -0.09,0.2 -0.23,0.51 -0.44,0.92 l -4.43,7.15 h -2.68 l 6.25,-9.39 -5.75,-9.28 h 2.68 l 3.81,6.56 c 0.25,0.43 0.47,0.87 0.66,1.3 h 0.05 c 0.28,-0.57 0.52,-1.02 0.73,-1.35 l 3.97,-6.51 h 2.51 l -5.87,9.26 5.95,9.41 z"
           id="path7" />
        <path
           class="cls-1"
           d="m 766.8,230.06 v -2.29 c 1.16,0.86 2.44,1.29 3.84,1.29 1.88,0 2.81,-0.62 2.81,-1.88 0,-0.36 -0.08,-0.66 -0.24,-0.9 -0.16,-0.25 -0.38,-0.47 -0.65,-0.66 -0.27,-0.19 -0.59,-0.36 -0.96,-0.51 -0.37,-0.15 -0.77,-0.31 -1.19,-0.48 -0.59,-0.23 -1.11,-0.47 -1.56,-0.71 -0.45,-0.24 -0.82,-0.51 -1.12,-0.81 -0.3,-0.3 -0.53,-0.64 -0.68,-1.02 -0.15,-0.38 -0.23,-0.83 -0.23,-1.34 0,-0.62 0.14,-1.18 0.43,-1.66 0.29,-0.48 0.67,-0.89 1.15,-1.21 0.48,-0.33 1.02,-0.57 1.63,-0.74 0.61,-0.16 1.24,-0.25 1.89,-0.25 1.15,0 2.19,0.2 3.1,0.6 v 2.16 c -0.98,-0.64 -2.11,-0.96 -3.39,-0.96 -0.4,0 -0.76,0.05 -1.08,0.14 -0.32,0.09 -0.6,0.22 -0.83,0.38 -0.23,0.17 -0.41,0.36 -0.53,0.59 -0.13,0.23 -0.19,0.48 -0.19,0.76 0,0.35 0.06,0.64 0.19,0.87 0.13,0.23 0.31,0.44 0.55,0.62 0.24,0.18 0.54,0.35 0.88,0.5 0.35,0.15 0.74,0.31 1.19,0.48 0.59,0.23 1.12,0.46 1.59,0.7 0.47,0.24 0.87,0.51 1.2,0.81 0.33,0.3 0.58,0.64 0.76,1.04 0.18,0.4 0.27,0.86 0.27,1.39 0,0.66 -0.15,1.23 -0.44,1.72 -0.29,0.49 -0.68,0.89 -1.17,1.21 -0.49,0.32 -1.05,0.56 -1.68,0.72 -0.63,0.16 -1.3,0.23 -1.99,0.23 -1.37,0 -2.56,-0.26 -3.57,-0.79 z"
           id="path9" />
        <path
           class="cls-1"
           d="m 797.86,230.55 h -2.13 v -7.66 c 0,-1.47 -0.23,-2.54 -0.68,-3.2 -0.46,-0.66 -1.22,-0.99 -2.3,-0.99 -0.91,0 -1.69,0.42 -2.32,1.25 -0.64,0.83 -0.96,1.83 -0.96,3 v 7.6 h -2.13 v -7.92 c 0,-2.62 -1.01,-3.93 -3.03,-3.93 -0.94,0 -1.71,0.39 -2.32,1.18 -0.61,0.79 -0.91,1.81 -0.91,3.07 v 7.6 h -2.13 v -13.33 h 2.13 v 2.11 h 0.05 c 0.95,-1.61 2.33,-2.42 4.14,-2.42 0.91,0 1.71,0.25 2.38,0.76 0.68,0.51 1.14,1.17 1.39,2 0.99,-1.84 2.47,-2.76 4.43,-2.76 2.93,0 4.4,1.81 4.4,5.43 v 8.22 z"
           id="path10" />
        <path
           class="cls-1"
           d="m 811.44,230.55 h -2.14 v -2.08 h -0.05 c -0.93,1.6 -2.3,2.4 -4.1,2.4 -1.33,0 -2.37,-0.35 -3.12,-1.05 -0.75,-0.7 -1.13,-1.64 -1.13,-2.8 0,-2.49 1.47,-3.94 4.4,-4.35 l 4,-0.56 c 0,-2.27 -0.92,-3.4 -2.75,-3.4 -1.61,0 -3.06,0.55 -4.35,1.64 v -2.19 c 1.31,-0.83 2.82,-1.25 4.53,-1.25 3.13,0 4.7,1.66 4.7,4.97 v 8.67 z m -2.14,-6.75 -3.22,0.44 c -0.99,0.14 -1.74,0.38 -2.24,0.74 -0.5,0.35 -0.76,0.97 -0.76,1.87 0,0.65 0.23,1.18 0.7,1.59 0.46,0.41 1.08,0.62 1.86,0.62 1.06,0 1.93,-0.37 2.62,-1.11 0.69,-0.74 1.04,-1.68 1.04,-2.82 z"
           id="path11" />
        <path
           class="cls-1"
           d="m 822.41,219.37 c -0.37,-0.29 -0.91,-0.43 -1.62,-0.43 -0.91,0 -1.67,0.43 -2.29,1.29 -0.61,0.86 -0.92,2.03 -0.92,3.52 v 6.8 h -2.13 v -13.33 h 2.13 v 2.75 h 0.05 c 0.3,-0.94 0.77,-1.67 1.39,-2.19 0.62,-0.52 1.32,-0.79 2.1,-0.79 0.56,0 0.98,0.06 1.28,0.18 v 2.21 z"
           id="path12" />
        <path
           class="cls-1"
           d="m 831.68,230.42 c -0.5,0.28 -1.17,0.42 -1.99,0.42 -2.33,0 -3.5,-1.3 -3.5,-3.91 v -7.89 h -2.29 v -1.82 h 2.29 v -3.25 l 2.14,-0.69 v 3.95 h 3.36 v 1.82 h -3.36 v 7.51 c 0,0.89 0.15,1.53 0.46,1.91 0.3,0.38 0.81,0.57 1.51,0.57 0.54,0 1,-0.15 1.39,-0.44 v 1.82 z"
           id="path13" />
        <path
           class="cls-1"
           d="m 843.98,230.55 h -2.14 v -19.74 h 2.14 z"
           id="path14" />
        <path
           class="cls-1"
           d="m 857.84,230.55 h -2.14 v -2.08 h -0.05 c -0.93,1.6 -2.3,2.4 -4.1,2.4 -1.33,0 -2.37,-0.35 -3.12,-1.05 -0.75,-0.7 -1.13,-1.64 -1.13,-2.8 0,-2.49 1.47,-3.94 4.4,-4.35 l 4,-0.56 c 0,-2.27 -0.92,-3.4 -2.75,-3.4 -1.61,0 -3.06,0.55 -4.35,1.64 v -2.19 c 1.31,-0.83 2.82,-1.25 4.53,-1.25 3.13,0 4.7,1.66 4.7,4.97 v 8.67 z m -2.13,-6.75 -3.22,0.44 c -0.99,0.14 -1.74,0.38 -2.24,0.74 -0.5,0.35 -0.76,0.97 -0.76,1.87 0,0.65 0.23,1.18 0.7,1.59 0.46,0.41 1.08,0.62 1.86,0.62 1.06,0 1.93,-0.37 2.62,-1.11 0.69,-0.74 1.04,-1.68 1.04,-2.82 z"
           id="path15" />
        <path
           class="cls-1"
           d="M 864.05,228.62 H 864 v 1.93 h -2.13 V 210.81 H 864 v 8.75 h 0.05 c 1.05,-1.77 2.59,-2.66 4.61,-2.66 1.71,0 3.05,0.6 4.02,1.79 0.97,1.19 1.45,2.79 1.45,4.8 0,2.23 -0.54,4.02 -1.63,5.36 -1.08,1.34 -2.57,2.01 -4.45,2.01 -1.76,0 -3.09,-0.75 -4,-2.24 z M 864,223.24 v 1.86 c 0,1.1 0.36,2.04 1.07,2.81 0.72,0.77 1.63,1.15 2.73,1.15 1.29,0 2.31,-0.49 3.04,-1.48 0.73,-0.99 1.1,-2.37 1.1,-4.13 0,-1.48 -0.34,-2.65 -1.03,-3.49 -0.69,-0.84 -1.61,-1.26 -2.79,-1.26 -1.24,0 -2.24,0.43 -3,1.3 -0.75,0.86 -1.13,1.95 -1.13,3.25 z"
           id="path16" />
        <path
           class="cls-1"
           d="m 876.74,230.06 v -2.29 c 1.16,0.86 2.44,1.29 3.84,1.29 1.88,0 2.81,-0.62 2.81,-1.88 0,-0.36 -0.08,-0.66 -0.24,-0.9 -0.16,-0.25 -0.38,-0.47 -0.65,-0.66 -0.27,-0.19 -0.59,-0.36 -0.96,-0.51 -0.37,-0.15 -0.77,-0.31 -1.19,-0.48 -0.59,-0.23 -1.11,-0.47 -1.56,-0.71 -0.45,-0.24 -0.82,-0.51 -1.12,-0.81 -0.3,-0.3 -0.53,-0.64 -0.68,-1.02 -0.15,-0.38 -0.23,-0.83 -0.23,-1.34 0,-0.62 0.14,-1.18 0.43,-1.66 0.29,-0.48 0.67,-0.89 1.15,-1.21 0.48,-0.33 1.02,-0.57 1.63,-0.74 0.61,-0.16 1.24,-0.25 1.89,-0.25 1.15,0 2.19,0.2 3.1,0.6 v 2.16 c -0.98,-0.64 -2.11,-0.96 -3.39,-0.96 -0.4,0 -0.76,0.05 -1.08,0.14 -0.32,0.09 -0.6,0.22 -0.83,0.38 -0.23,0.17 -0.41,0.36 -0.53,0.59 -0.13,0.23 -0.19,0.48 -0.19,0.76 0,0.35 0.06,0.64 0.19,0.87 0.13,0.23 0.31,0.44 0.55,0.62 0.24,0.18 0.54,0.35 0.89,0.5 0.35,0.15 0.74,0.31 1.18,0.48 0.59,0.23 1.12,0.46 1.59,0.7 0.47,0.24 0.87,0.51 1.2,0.81 0.33,0.3 0.58,0.64 0.76,1.04 0.18,0.39 0.27,0.86 0.27,1.39 0,0.66 -0.15,1.23 -0.44,1.72 -0.29,0.49 -0.68,0.89 -1.17,1.21 -0.49,0.32 -1.05,0.56 -1.68,0.72 -0.63,0.16 -1.3,0.23 -1.99,0.23 -1.37,0 -2.56,-0.26 -3.57,-0.79 z"
           id="path17" />
      </g>
      <g
         id="g25"
         transform="translate(-4)">
        <path
           class="cls-1"
           d="m 311.07,199.45 v -91.58 h 10.46 c 7.7,0 13.94,6.24 13.94,13.94 v 77.64 z"
           id="path18" />
        <path
           class="cls-1"
           d="m 417.06,199.45 c -8.46,0 -15.32,-6.86 -15.32,-15.32 v -17.48 c 0,-5.77 -0.85,-10.12 -2.56,-13.06 -1.71,-2.93 -4.48,-4.39 -8.33,-4.39 -4.64,0 -8.25,1.64 -10.82,4.92 -2.58,3.28 -3.87,8.73 -3.87,16.34 v 29 H 352.54 V 131.1 h 8.92 c 6.96,0 12.6,5.64 12.6,12.6 v 0 c 0,0 0.26,0 0.26,0 2.36,-4.81 5.71,-8.37 10.04,-10.69 4.33,-2.32 9.29,-3.48 14.89,-3.48 4.64,0 8.61,0.77 11.94,2.3 3.32,1.53 6.04,3.54 8.13,6.04 2.1,2.49 3.63,5.36 4.59,8.59 0.96,3.24 1.44,6.61 1.44,10.1 v 42.9 h -8.29 z"
           id="path19" />
        <path
           class="cls-1"
           d="m 486.23,199.45 h -26.9 l -25.32,-68.36 h 12.27 c 7.73,0 14.54,5.11 16.7,12.53 l 10.52,36.15 h 0.26 l 10.1,-34.37 c 2.49,-8.48 10.28,-14.31 19.12,-14.31 h 8.57 z"
           id="path20" />
        <path
           class="cls-1"
           d="m 540.81,172.16 c 0.7,4.64 2.71,7.98 6.04,10.04 3.32,2.06 8.05,3.08 14.17,3.08 2.97,0 6.3,-0.39 9.97,-1.18 0.04,0 0.07,-0.02 0.11,-0.02 5.46,-1.19 10.65,2.83 10.65,8.42 v 4.2 c -3.76,1.49 -7.79,2.58 -12.07,3.28 -4.29,0.7 -8.62,1.05 -12.99,1.05 -5.69,0 -10.96,-0.81 -15.81,-2.43 -4.85,-1.62 -9.05,-3.96 -12.6,-7.02 -3.54,-3.06 -6.32,-6.8 -8.33,-11.22 -2.01,-4.42 -3.02,-9.43 -3.02,-15.02 0,-5.59 0.83,-10.19 2.49,-14.56 1.66,-4.37 4.07,-8.13 7.22,-11.28 3.15,-3.15 7,-5.6 11.55,-7.35 4.55,-1.75 9.71,-2.62 15.48,-2.62 6.3,0 11.63,1.05 16.01,3.15 4.37,2.1 7.92,4.92 10.63,8.46 2.71,3.54 4.68,7.61 5.9,12.2 1.22,4.59 1.84,9.43 1.84,14.5 v 4.33 h -47.24 z m 22.83,-23.68 c -2.1,-2.67 -5.42,-4 -9.97,-4 -4.2,0 -7.35,1.34 -9.45,4 -2.1,2.67 -3.33,6.1 -3.67,10.3 h 26.24 c 0,-4.2 -1.05,-7.63 -3.15,-10.3 z"
           id="path21" />
        <path
           class="cls-1"
           d="m 651.55,189.61 c -1.92,2.97 -4.42,5.31 -7.48,7.02 -3.06,1.71 -6.47,2.86 -10.23,3.48 -3.76,0.61 -7.48,0.92 -11.15,0.92 -5.51,0 -10.26,-0.28 -14.24,-0.85 -3.98,-0.57 -7.54,-1.38 -10.69,-2.43 l 0.44,-5.8 c 0.42,-5.53 5.68,-9.27 11.09,-8.04 0.54,0.12 1.07,0.23 1.59,0.33 3.67,0.7 7.09,1.05 10.23,1.05 4.11,0 6.76,-0.54 7.94,-1.64 1.18,-1.09 1.77,-2.38 1.77,-3.87 0,-1.92 -0.83,-3.39 -2.49,-4.4 -1.66,-1 -3.74,-1.86 -6.23,-2.56 -2.49,-0.7 -5.18,-1.42 -8.07,-2.16 -2.89,-0.74 -5.58,-1.84 -8.07,-3.28 -2.49,-1.44 -4.57,-3.37 -6.23,-5.77 -1.66,-2.4 -2.49,-5.66 -2.49,-9.77 0,-3.67 0.79,-6.91 2.36,-9.71 1.57,-2.8 3.69,-5.12 6.36,-6.95 2.67,-1.84 5.79,-3.24 9.38,-4.2 3.59,-0.96 7.43,-1.44 11.55,-1.44 4.12,0 8,0.31 12.2,0.92 4.2,0.61 7.96,1.62 11.28,3.02 l -0.56,5 c -0.6,5.32 -5.63,8.84 -10.88,7.82 -0.03,0 -0.07,-0.01 -0.1,-0.02 -3.41,-0.66 -6.34,-0.98 -8.79,-0.98 -3.06,0 -5.62,0.37 -7.68,1.12 -2.06,0.74 -3.08,1.95 -3.08,3.61 0,1.75 0.87,3.06 2.62,3.94 1.75,0.88 3.91,1.64 6.49,2.3 2.58,0.66 5.4,1.36 8.46,2.1 3.06,0.74 5.88,1.86 8.46,3.35 2.58,1.49 4.74,3.54 6.49,6.17 1.75,2.62 2.62,6.08 2.62,10.36 0,4.64 -0.96,8.44 -2.89,11.41 z"
           id="path22" />
        <path
           class="cls-1"
           d="m 706.86,200.7 c -2.23,0.22 -4.61,0.33 -7.15,0.33 -9.27,0 -15.96,-1.9 -20.07,-5.71 -4.11,-3.81 -6.17,-10.08 -6.17,-18.83 v -28.87 h -13.51 v -16.53 h 13.51 v -5.27 c 0,-5.99 3.91,-11.28 9.64,-13.03 l 13.97,-4.27 v 22.57 h 16.53 v 5.58 c 0,6.05 -4.9,10.95 -10.95,10.95 h -5.59 v 25.59 c 0,4.2 0.68,7.26 2.03,9.19 1.36,1.92 3.87,2.89 7.54,2.89 0.79,0 1.81,-0.09 3.08,-0.26 h 0.04 c 2.13,-0.3 4.06,1.3 4.17,3.45 l 0.58,11.25 c -2.89,0.44 -5.44,0.76 -7.68,0.98 z"
           id="path23" />
        <path
           class="cls-1"
           d="m 787.94,200.17 c -4.07,0.57 -8.42,0.85 -13.06,0.85 -6.3,0 -12.57,-0.83 -18.83,-2.49 -6.26,-1.66 -11.92,-4.35 -16.99,-8.07 -5.07,-3.72 -9.18,-8.55 -12.33,-14.5 -3.15,-5.95 -4.72,-13.21 -4.72,-21.78 0,-7.96 1.31,-14.93 3.94,-20.93 2.62,-5.99 6.28,-11 10.96,-15.02 4.68,-4.02 10.19,-7.02 16.53,-8.99 6.34,-1.97 13.27,-2.95 20.8,-2.95 3.76,0 7.72,0.33 11.87,0.98 4.15,0.66 9.34,1.9 15.55,3.74 l -0.54,5.45 c -0.65,6.56 -6.98,10.99 -13.38,9.39 -0.21,-0.05 -0.43,-0.1 -0.64,-0.15 -3.85,-0.87 -7.57,-1.31 -11.15,-1.31 -4.38,0 -8.33,0.74 -11.87,2.23 -3.54,1.49 -6.56,3.54 -9.05,6.17 -2.49,2.62 -4.42,5.75 -5.77,9.38 -1.36,3.63 -2.03,7.59 -2.03,11.87 0,4.55 0.76,8.62 2.3,12.2 1.53,3.59 3.65,6.61 6.36,9.05 2.71,2.45 5.92,4.33 9.64,5.64 3.72,1.31 7.81,1.97 12.27,1.97 3.41,0 6.93,-0.35 10.56,-1.05 0.04,0 0.07,-0.01 0.11,-0.02 6.46,-1.26 12.59,3.33 12.99,9.9 l 0.35,5.6 c -5.16,1.31 -9.78,2.25 -13.84,2.82 z"
           id="path24" />
        <path
           class="cls-1"
           d="m 885.03,180.23 c -1.97,4.42 -4.72,8.18 -8.27,11.28 -3.54,3.11 -7.74,5.47 -12.6,7.09 -4.85,1.62 -10.17,2.43 -15.94,2.43 -5.77,0 -11.09,-0.81 -15.94,-2.43 -4.85,-1.62 -9.05,-3.98 -12.6,-7.09 -3.54,-3.1 -6.3,-6.87 -8.27,-11.28 -1.97,-4.42 -2.95,-9.38 -2.95,-14.89 0,-5.51 0.98,-10.6 2.95,-15.02 1.97,-4.42 4.72,-8.18 8.27,-11.28 3.54,-3.1 7.74,-5.46 12.6,-7.09 4.85,-1.62 10.17,-2.43 15.94,-2.43 5.77,0 11.09,0.81 15.94,2.43 4.85,1.62 9.05,3.98 12.6,7.09 3.54,3.11 6.3,6.87 8.27,11.28 1.97,4.42 2.95,9.43 2.95,15.02 0,5.59 -0.98,10.48 -2.95,14.89 z M 859.64,151.3 c -2.62,-3.5 -6.43,-5.25 -11.42,-5.25 -4.99,0 -8.79,1.75 -11.41,5.25 -2.62,3.5 -3.94,8.14 -3.94,13.91 0,6.12 1.38,10.87 4.13,14.24 2.75,3.37 6.49,5.05 11.22,5.05 4.73,0 8.46,-1.68 11.22,-5.05 2.76,-3.37 4.13,-8.11 4.13,-14.24 0,-5.77 -1.31,-10.41 -3.93,-13.91 z"
           id="path25" />
      </g>
      <g
         id="g1"
         transform="matrix(0.95118899,0,0,0.95118899,10.585827,7.2618589)">
        <path
           id="path8"
           class="cls-1"
           d="m 245.03,240.9 -89.44,51.09 c -13.06,7.46 -29.11,7.41 -42.13,-0.12 L 21.45,238.62 C 8.13,230.91 -0.04,216.72 0,201.38 L 0.29,99.04 C 0.34,81.79 9.62,65.88 24.64,57.3 L 116.01,5.1 c 11.98,-6.84 26.71,-6.8 38.65,0.11 l 91.23,52.8 c 14.87,8.61 24.01,24.47 23.96,41.6 l -0.28,99.22 c -0.05,17.38 -9.4,33.41 -24.54,42.06 v 0 z" />
        <path
           id="path29"
           class="cls-3"
           d="M 240.54,227.59 149.44,280 c -9.43,5.43 -21.03,5.38 -30.42,-0.11 L 28.78,227.13 c -9.56,-5.59 -15.43,-15.88 -15.39,-27 L 13.75,97 C 13.79,85 20.2,73.93 30.57,67.96 L 119.36,16.9 c 9.79,-5.63 21.82,-5.59 31.57,0.11 l 89.25,52.18 c 9.82,5.74 15.85,16.31 15.81,27.72 l -0.36,104.65 c -0.04,10.76 -5.79,20.68 -15.08,26.03 v 0 z" />
        <path
           class="cls-1"
           d="m 245.09,86.79 c -1.05,-1.95 -3.47,-2.68 -5.42,-1.63 L 134.8,141.47 29.94,85.16 c -1.95,-1.05 -4.37,-0.31 -5.42,1.63 -1.05,1.95 -0.31,4.37 1.63,5.42 l 104.53,56.13 v 126.01 c 0,2.21 1.79,4 4,4 2.21,0 4,-1.79 4,-4 V 148.47 L 243.45,92.21 c 1.95,-1.04 2.68,-3.47 1.63,-5.42 z"
           id="path1" />
        <g
           id="g3">
          <path
             class="cls-3"
             d="m 243,231.54 -61.43,46.83 c -7.11,5.42 -17.35,0.35 -17.35,-8.59 V 159.93 c 0,-6.94 3.24,-13.48 8.76,-17.68 L 243,88.88"
             id="path2" />
          <path
             class="cls-1"
             d="M 160.22,271.45 V 162.32 c 0,-9.69 4.52,-18.83 12.23,-24.71 l 68.12,-51.92 c 1.76,-1.34 4.27,-1 5.61,0.76 1.34,1.76 1,4.27 -0.76,5.61 l -68.33,52.08 c -5.59,4.26 -8.87,10.89 -8.87,17.92 v 106.77 c 0,6.02 6.89,9.43 11.68,5.78 l 60.68,-46.25 c 1.76,-1.34 4.27,-1 5.61,0.76 1.34,1.76 1,4.27 -0.76,5.61 l -62.76,47.84 c -9.2,7.01 -22.44,0.45 -22.44,-11.11 z"
             id="path3" />
        </g>
        <path
           class="cls-1"
           d="m 204.78,220.42 c -3.34,0 -6.21,-1.07 -8.35,-3.13 -2.71,-2.6 -4.15,-6.7 -4.15,-11.84 0,-14.4 11.19,-34.27 25.48,-45.24 l 2.73,-1.96 c 4.21,-2.8 8.19,-4.52 11.89,-5.13 0.82,-0.14 1.59,0.42 1.73,1.23 0.14,0.81 -0.42,1.59 -1.23,1.73 -3.23,0.54 -6.93,2.14 -10.68,4.64 l -2.65,1.9 c -13.59,10.43 -24.27,29.26 -24.27,42.83 0,4.3 1.12,7.65 3.22,9.68 1.7,1.63 3.99,2.41 6.8,2.28 0.82,-0.03 1.53,0.61 1.56,1.44 0.03,0.83 -0.61,1.53 -1.44,1.56 -0.22,0 -0.43,0.01 -0.64,0.01 z"
           id="path26" />
        <path
           class="cls-1"
           d="m 229.39,169.39 v 13.58 c 0,0.91 -0.63,2.01 -1.49,2.63 -0.31,0.22 -0.63,0.36 -0.94,0.42 -0.28,0.05 -0.54,0.03 -0.78,-0.07 -0.46,-0.19 -0.73,-0.65 -0.73,-1.24 v -12.49 c -9.46,7.77 -16.87,21.09 -16.87,30.81 0,10.39 8.45,12.78 18.84,5.34 10.39,-7.44 18.84,-21.95 18.84,-32.34 0,-9.72 -7.41,-12.42 -16.87,-6.62 z"
           id="path27" />
      </g>
    </g>
  </g>
</svg>
