<?xml version="1.0" encoding="UTF-8" standalone="no"?>
<svg
   id="Capa_2"
   data-name="Capa 2"
   viewBox="0 0 887.99 297.55"
   version="1.1"
   sodipodi:docname="Recurso4.svg"
   inkscape:version="1.3.2 (091e20e, 2023-11-25, custom)"
   xmlns:inkscape="http://www.inkscape.org/namespaces/inkscape"
   xmlns:sodipodi="http://sodipodi.sourceforge.net/DTD/sodipodi-0.dtd"
   xmlns="http://www.w3.org/2000/svg"
   xmlns:svg="http://www.w3.org/2000/svg">
  <sodipodi:namedview
     id="namedview27"
     pagecolor="#505050"
     bordercolor="#eeeeee"
     borderopacity="1"
     inkscape:showpageshadow="0"
     inkscape:pageopacity="0"
     inkscape:pagecheckerboard="0"
     inkscape:deskcolor="#505050"
     inkscape:zoom="0.91104631"
     inkscape:cx="443.995"
     inkscape:cy="148.73009"
     inkscape:window-width="1600"
     inkscape:window-height="829"
     inkscape:window-x="-8"
     inkscape:window-y="-8"
     inkscape:window-maximized="1"
     inkscape:current-layer="Capa_2" />
  <defs
     id="defs1">
    <style
       id="style1">
      .cls-1 {
        fill: #fff;
      }

      .cls-2 {
        isolation: isolate;
      }

      .cls-3 {
        fill: #9bb0cc;
      }
    </style>
  </defs>
  <g
     id="svg1">
    <g
       id="g27">
      <path
         id="path8"
         class="cls-1"
         d="M245.03,240.9l-89.44,51.09c-13.06,7.46-29.11,7.41-42.13-.12l-92.01-53.25C8.13,230.91-.04,216.72,0,201.38l.29-102.34c.05-17.25,9.33-33.16,24.35-41.74L116.01,5.1c11.98-6.84,26.71-6.8,38.65.11l91.23,52.8c14.87,8.61,24.01,24.47,23.96,41.6l-.28,99.22c-.05,17.38-9.4,33.41-24.54,42.06h0Z" />
      <path
         id="path29"
         class="cls-3"
         d="M240.54,227.59l-91.1,52.41c-9.43,5.43-21.03,5.38-30.42-.11l-90.24-52.76c-9.56-5.59-15.43-15.88-15.39-27l.36-103.13c.04-12,6.45-23.07,16.82-29.04L119.36,16.9c9.79-5.63,21.82-5.59,31.57.11l89.25,52.18c9.82,5.74,15.85,16.31,15.81,27.72l-.36,104.65c-.04,10.76-5.79,20.68-15.08,26.03h0Z" />
      <path
         class="cls-1"
         d="M245.09,86.79c-1.05-1.95-3.47-2.68-5.42-1.63l-104.87,56.31L29.94,85.16c-1.95-1.05-4.37-.31-5.42,1.63-1.05,1.95-.31,4.37,1.63,5.42l104.53,56.13v126.01c0,2.21,1.79,4,4,4s4-1.79,4-4v-125.88l104.77-56.26c1.95-1.04,2.68-3.47,1.63-5.42Z"
         id="path1" />
      <g
         id="g3">
        <path
           class="cls-3"
           d="M243,231.54l-61.43,46.83c-7.11,5.42-17.35.35-17.35-8.59v-109.85c0-6.94,3.24-13.48,8.76-17.68l70.02-53.37"
           id="path2" />
        <path
           class="cls-1"
           d="M160.22,271.45v-109.13c0-9.69,4.52-18.83,12.23-24.71l68.12-51.92c1.76-1.34,4.27-1,5.61.76,1.34,1.76,1,4.27-.76,5.61l-68.33,52.08c-5.59,4.26-8.87,10.89-8.87,17.92v106.77c0,6.02,6.89,9.43,11.68,5.78l60.68-46.25c1.76-1.34,4.27-1,5.61.76,1.34,1.76,1,4.27-.76,5.61l-62.76,47.84c-9.2,7.01-22.44.45-22.44-11.11Z"
           id="path3" />
      </g>
      <g
         class="cls-2"
         id="g17">
        <path
           class="cls-1"
           d="M695.59,228.62h-.05v1.93h-2.14v-19.74h2.14v8.75h.05c1.05-1.77,2.59-2.66,4.61-2.66,1.71,0,3.05.6,4.02,1.79.97,1.19,1.45,2.79,1.45,4.8,0,2.23-.54,4.02-1.63,5.36-1.08,1.34-2.57,2.01-4.45,2.01-1.76,0-3.09-.75-4-2.24ZM695.54,223.24v1.86c0,1.1.36,2.04,1.07,2.81.72.77,1.62,1.15,2.73,1.15,1.29,0,2.31-.49,3.04-1.48.73-.99,1.1-2.37,1.1-4.13,0-1.48-.34-2.65-1.03-3.49-.69-.84-1.62-1.26-2.79-1.26-1.24,0-2.24.43-2.99,1.3-.76.86-1.13,1.95-1.13,3.25Z"
           id="path4" />
        <path
           class="cls-1"
           d="M719.69,217.21l-6.13,15.47c-1.09,2.76-2.63,4.14-4.61,4.14-.56,0-1.02-.06-1.39-.17v-1.91c.46.16.88.23,1.26.23,1.08,0,1.88-.64,2.42-1.93l1.07-2.53-5.21-13.31h2.37l3.61,10.26c.04.13.13.47.27,1.02h.08c.04-.21.13-.54.26-.99l3.79-10.29h2.21Z"
           id="path5" />
        <path
           class="cls-1"
           d="M729.57,230.55v-18.67h5.31c1.61,0,2.89.4,3.84,1.19s1.42,1.82,1.42,3.09c0,1.06-.29,1.98-.86,2.76-.57.78-1.36,1.34-2.37,1.67v.05c1.26.15,2.27.62,3.02,1.43.76.8,1.13,1.85,1.13,3.13,0,1.6-.57,2.89-1.72,3.88-1.15.99-2.59,1.48-4.34,1.48h-5.44ZM731.76,213.85v6.03h2.24c1.2,0,2.14-.29,2.83-.87.69-.58,1.03-1.39,1.03-2.44,0-1.81-1.19-2.72-3.58-2.72h-2.51ZM731.76,221.85v6.72h2.97c1.28,0,2.28-.3,2.99-.91.71-.61,1.06-1.44,1.06-2.5,0-2.2-1.5-3.31-4.51-3.31h-2.51Z"
           id="path6" />
        <path
           class="cls-1"
           d="M757.75,230.55h-2.67l-4.3-7.15c-.13-.22-.27-.52-.43-.92h-.05c-.09.2-.23.51-.44.92l-4.43,7.15h-2.68l6.25-9.39-5.75-9.28h2.68l3.81,6.56c.25.43.47.87.66,1.3h.05c.28-.57.52-1.02.73-1.35l3.97-6.51h2.51l-5.87,9.26,5.95,9.41Z"
           id="path7" />
        <path
           class="cls-1"
           d="M766.8,230.06v-2.29c1.16.86,2.44,1.29,3.84,1.29,1.88,0,2.81-.62,2.81-1.88,0-.36-.08-.66-.24-.9-.16-.25-.38-.47-.65-.66-.27-.19-.59-.36-.96-.51s-.77-.31-1.19-.48c-.59-.23-1.11-.47-1.56-.71-.45-.24-.82-.51-1.12-.81-.3-.3-.53-.64-.68-1.02-.15-.38-.23-.83-.23-1.34,0-.62.14-1.18.43-1.66.29-.48.67-.89,1.15-1.21.48-.33,1.02-.57,1.63-.74.61-.16,1.24-.25,1.89-.25,1.15,0,2.19.2,3.1.6v2.16c-.98-.64-2.11-.96-3.39-.96-.4,0-.76.05-1.08.14s-.6.22-.83.38c-.23.17-.41.36-.53.59-.13.23-.19.48-.19.76,0,.35.06.64.19.87s.31.44.55.62c.24.18.54.35.88.5.35.15.74.31,1.19.48.59.23,1.12.46,1.59.7s.87.51,1.2.81c.33.3.58.64.76,1.04s.27.86.27,1.39c0,.66-.15,1.23-.44,1.72-.29.49-.68.89-1.17,1.21s-1.05.56-1.68.72-1.3.23-1.99.23c-1.37,0-2.56-.26-3.57-.79Z"
           id="path9" />
        <path
           class="cls-1"
           d="M797.86,230.55h-2.13v-7.66c0-1.47-.23-2.54-.68-3.2-.46-.66-1.22-.99-2.3-.99-.91,0-1.69.42-2.32,1.25-.64.83-.96,1.83-.96,3v7.6h-2.13v-7.92c0-2.62-1.01-3.93-3.03-3.93-.94,0-1.71.39-2.32,1.18-.61.79-.91,1.81-.91,3.07v7.6h-2.13v-13.33h2.13v2.11h.05c.95-1.61,2.33-2.42,4.14-2.42.91,0,1.71.25,2.38.76.68.51,1.14,1.17,1.39,2,.99-1.84,2.47-2.76,4.43-2.76,2.93,0,4.4,1.81,4.4,5.43v8.22Z"
           id="path10" />
        <path
           class="cls-1"
           d="M811.44,230.55h-2.14v-2.08h-.05c-.93,1.6-2.3,2.4-4.1,2.4-1.33,0-2.37-.35-3.12-1.05-.75-.7-1.13-1.64-1.13-2.8,0-2.49,1.47-3.94,4.4-4.35l4-.56c0-2.27-.92-3.4-2.75-3.4-1.61,0-3.06.55-4.35,1.64v-2.19c1.31-.83,2.82-1.25,4.53-1.25,3.13,0,4.7,1.66,4.7,4.97v8.67ZM809.3,223.8l-3.22.44c-.99.14-1.74.38-2.24.74-.5.35-.76.97-.76,1.87,0,.65.23,1.18.7,1.59.46.41,1.08.62,1.86.62,1.06,0,1.93-.37,2.62-1.11.69-.74,1.04-1.68,1.04-2.82v-1.33Z"
           id="path11" />
        <path
           class="cls-1"
           d="M822.41,219.37c-.37-.29-.91-.43-1.62-.43-.91,0-1.67.43-2.29,1.29-.61.86-.92,2.03-.92,3.52v6.8h-2.13v-13.33h2.13v2.75h.05c.3-.94.77-1.67,1.39-2.19s1.32-.79,2.1-.79c.56,0,.98.06,1.28.18v2.21Z"
           id="path12" />
        <path
           class="cls-1"
           d="M831.68,230.42c-.5.28-1.17.42-1.99.42-2.33,0-3.5-1.3-3.5-3.91v-7.89h-2.29v-1.82h2.29v-3.25l2.14-.69v3.95h3.36v1.82h-3.36v7.51c0,.89.15,1.53.46,1.91.3.38.81.57,1.51.57.54,0,1-.15,1.39-.44v1.82Z"
           id="path13" />
        <path
           class="cls-1"
           d="M843.98,230.55h-2.14v-19.74h2.14v19.74Z"
           id="path14" />
        <path
           class="cls-1"
           d="M857.84,230.55h-2.14v-2.08h-.05c-.93,1.6-2.3,2.4-4.1,2.4-1.33,0-2.37-.35-3.12-1.05-.75-.7-1.13-1.64-1.13-2.8,0-2.49,1.47-3.94,4.4-4.35l4-.56c0-2.27-.92-3.4-2.75-3.4-1.61,0-3.06.55-4.35,1.64v-2.19c1.31-.83,2.82-1.25,4.53-1.25,3.13,0,4.7,1.66,4.7,4.97v8.67ZM855.71,223.8l-3.22.44c-.99.14-1.74.38-2.24.74-.5.35-.76.97-.76,1.87,0,.65.23,1.18.7,1.59.46.41,1.08.62,1.86.62,1.06,0,1.93-.37,2.62-1.11.69-.74,1.04-1.68,1.04-2.82v-1.33Z"
           id="path15" />
        <path
           class="cls-1"
           d="M864.05,228.62h-.05v1.93h-2.13v-19.74h2.13v8.75h.05c1.05-1.77,2.59-2.66,4.61-2.66,1.71,0,3.05.6,4.02,1.79.97,1.19,1.45,2.79,1.45,4.8,0,2.23-.54,4.02-1.63,5.36-1.08,1.34-2.57,2.01-4.45,2.01-1.76,0-3.09-.75-4-2.24ZM864,223.24v1.86c0,1.1.36,2.04,1.07,2.81.72.77,1.63,1.15,2.73,1.15,1.29,0,2.31-.49,3.04-1.48.73-.99,1.1-2.37,1.1-4.13,0-1.48-.34-2.65-1.03-3.49-.69-.84-1.61-1.26-2.79-1.26-1.24,0-2.24.43-3,1.3-.75.86-1.13,1.95-1.13,3.25Z"
           id="path16" />
        <path
           class="cls-1"
           d="M876.74,230.06v-2.29c1.16.86,2.44,1.29,3.84,1.29,1.88,0,2.81-.62,2.81-1.88,0-.36-.08-.66-.24-.9-.16-.25-.38-.47-.65-.66-.27-.19-.59-.36-.96-.51-.37-.15-.77-.31-1.19-.48-.59-.23-1.11-.47-1.56-.71-.45-.24-.82-.51-1.12-.81s-.53-.64-.68-1.02c-.15-.38-.23-.83-.23-1.34,0-.62.14-1.18.43-1.66.29-.48.67-.89,1.15-1.21.48-.33,1.02-.57,1.63-.74.61-.16,1.24-.25,1.89-.25,1.15,0,2.19.2,3.1.6v2.16c-.98-.64-2.11-.96-3.39-.96-.4,0-.76.05-1.08.14s-.6.22-.83.38c-.23.17-.41.36-.53.59-.13.23-.19.48-.19.76,0,.35.06.64.19.87s.31.44.55.62c.24.18.54.35.89.5.35.15.74.31,1.18.48.59.23,1.12.46,1.59.7s.87.51,1.2.81c.33.3.58.64.76,1.04.18.39.27.86.27,1.39,0,.66-.15,1.23-.44,1.72-.29.49-.68.89-1.17,1.21-.49.32-1.05.56-1.68.72s-1.3.23-1.99.23c-1.37,0-2.56-.26-3.57-.79Z"
           id="path17" />
      </g>
      <g
         id="g25">
        <path
           class="cls-1"
           d="M311.07,199.45v-91.58h10.46c7.7,0,13.94,6.24,13.94,13.94v77.64h-24.4Z"
           id="path18" />
        <path
           class="cls-1"
           d="M417.06,199.45c-8.46,0-15.32-6.86-15.32-15.32v-17.48c0-5.77-.85-10.12-2.56-13.06-1.71-2.93-4.48-4.39-8.33-4.39-4.64,0-8.25,1.64-10.82,4.92-2.58,3.28-3.87,8.73-3.87,16.34v29h-23.62v-68.36h8.92c6.96,0,12.6,5.64,12.6,12.6h0s.26,0,.26,0c2.36-4.81,5.71-8.37,10.04-10.69,4.33-2.32,9.29-3.48,14.89-3.48,4.64,0,8.61.77,11.94,2.3,3.32,1.53,6.04,3.54,8.13,6.04,2.1,2.49,3.63,5.36,4.59,8.59.96,3.24,1.44,6.61,1.44,10.1v42.9h-8.29Z"
           id="path19" />
        <path
           class="cls-1"
           d="M486.23,199.45h-26.9l-25.32-68.36h12.27c7.73,0,14.54,5.11,16.7,12.53l10.52,36.15h.26l10.1-34.37c2.49-8.48,10.28-14.31,19.12-14.31h8.57l-25.32,68.36Z"
           id="path20" />
        <path
           class="cls-1"
           d="M540.81,172.16c.7,4.64,2.71,7.98,6.04,10.04,3.32,2.06,8.05,3.08,14.17,3.08,2.97,0,6.3-.39,9.97-1.18.04,0,.07-.02.11-.02,5.46-1.19,10.65,2.83,10.65,8.42v4.2c-3.76,1.49-7.79,2.58-12.07,3.28-4.29.7-8.62,1.05-12.99,1.05-5.69,0-10.96-.81-15.81-2.43-4.85-1.62-9.05-3.96-12.6-7.02-3.54-3.06-6.32-6.8-8.33-11.22-2.01-4.42-3.02-9.43-3.02-15.02s.83-10.19,2.49-14.56c1.66-4.37,4.07-8.13,7.22-11.28,3.15-3.15,7-5.6,11.55-7.35,4.55-1.75,9.71-2.62,15.48-2.62,6.3,0,11.63,1.05,16.01,3.15,4.37,2.1,7.92,4.92,10.63,8.46,2.71,3.54,4.68,7.61,5.9,12.2,1.22,4.59,1.84,9.43,1.84,14.5v4.33h-47.24ZM563.64,148.48c-2.1-2.67-5.42-4-9.97-4-4.2,0-7.35,1.34-9.45,4-2.1,2.67-3.33,6.1-3.67,10.3h26.24c0-4.2-1.05-7.63-3.15-10.3Z"
           id="path21" />
        <path
           class="cls-1"
           d="M651.55,189.61c-1.92,2.97-4.42,5.31-7.48,7.02-3.06,1.71-6.47,2.86-10.23,3.48-3.76.61-7.48.92-11.15.92-5.51,0-10.26-.28-14.24-.85-3.98-.57-7.54-1.38-10.69-2.43l.44-5.8c.42-5.53,5.68-9.27,11.09-8.04.54.12,1.07.23,1.59.33,3.67.7,7.09,1.05,10.23,1.05,4.11,0,6.76-.54,7.94-1.64,1.18-1.09,1.77-2.38,1.77-3.87,0-1.92-.83-3.39-2.49-4.4-1.66-1-3.74-1.86-6.23-2.56-2.49-.7-5.18-1.42-8.07-2.16-2.89-.74-5.58-1.84-8.07-3.28-2.49-1.44-4.57-3.37-6.23-5.77-1.66-2.4-2.49-5.66-2.49-9.77,0-3.67.79-6.91,2.36-9.71,1.57-2.8,3.69-5.12,6.36-6.95,2.67-1.84,5.79-3.24,9.38-4.2,3.59-.96,7.43-1.44,11.55-1.44s8,.31,12.2.92c4.2.61,7.96,1.62,11.28,3.02l-.56,5c-.6,5.32-5.63,8.84-10.88,7.82-.03,0-.07-.01-.1-.02-3.41-.66-6.34-.98-8.79-.98-3.06,0-5.62.37-7.68,1.12-2.06.74-3.08,1.95-3.08,3.61,0,1.75.87,3.06,2.62,3.94,1.75.88,3.91,1.64,6.49,2.3,2.58.66,5.4,1.36,8.46,2.1,3.06.74,5.88,1.86,8.46,3.35,2.58,1.49,4.74,3.54,6.49,6.17,1.75,2.62,2.62,6.08,2.62,10.36,0,4.64-.96,8.44-2.89,11.41Z"
           id="path22" />
        <path
           class="cls-1"
           d="M706.86,200.7c-2.23.22-4.61.33-7.15.33-9.27,0-15.96-1.9-20.07-5.71-4.11-3.81-6.17-10.08-6.17-18.83v-28.87h-13.51v-16.53h13.51v-5.27c0-5.99,3.91-11.28,9.64-13.03l13.97-4.27v22.57h16.53v5.58c0,6.05-4.9,10.95-10.95,10.95h-5.59v25.59c0,4.2.68,7.26,2.03,9.19,1.36,1.92,3.87,2.89,7.54,2.89.79,0,1.81-.09,3.08-.26h.04c2.13-.3,4.06,1.3,4.17,3.45l.58,11.25c-2.89.44-5.44.76-7.68.98Z"
           id="path23" />
        <path
           class="cls-1"
           d="M787.94,200.17c-4.07.57-8.42.85-13.06.85-6.3,0-12.57-.83-18.83-2.49-6.26-1.66-11.92-4.35-16.99-8.07-5.07-3.72-9.18-8.55-12.33-14.5-3.15-5.95-4.72-13.21-4.72-21.78,0-7.96,1.31-14.93,3.94-20.93,2.62-5.99,6.28-11,10.96-15.02,4.68-4.02,10.19-7.02,16.53-8.99,6.34-1.97,13.27-2.95,20.8-2.95,3.76,0,7.72.33,11.87.98,4.15.66,9.34,1.9,15.55,3.74l-.54,5.45c-.65,6.56-6.98,10.99-13.38,9.39-.21-.05-.43-.1-.64-.15-3.85-.87-7.57-1.31-11.15-1.31-4.38,0-8.33.74-11.87,2.23-3.54,1.49-6.56,3.54-9.05,6.17-2.49,2.62-4.42,5.75-5.77,9.38-1.36,3.63-2.03,7.59-2.03,11.87,0,4.55.76,8.62,2.3,12.2,1.53,3.59,3.65,6.61,6.36,9.05,2.71,2.45,5.92,4.33,9.64,5.64,3.72,1.31,7.81,1.97,12.27,1.97,3.41,0,6.93-.35,10.56-1.05.04,0,.07-.01.11-.02,6.46-1.26,12.59,3.33,12.99,9.9l.35,5.6c-5.16,1.31-9.78,2.25-13.84,2.82Z"
           id="path24" />
        <path
           class="cls-1"
           d="M885.03,180.23c-1.97,4.42-4.72,8.18-8.27,11.28-3.54,3.11-7.74,5.47-12.6,7.09-4.85,1.62-10.17,2.43-15.94,2.43s-11.09-.81-15.94-2.43c-4.85-1.62-9.05-3.98-12.6-7.09-3.54-3.1-6.3-6.87-8.27-11.28-1.97-4.42-2.95-9.38-2.95-14.89s.98-10.6,2.95-15.02c1.97-4.42,4.72-8.18,8.27-11.28,3.54-3.1,7.74-5.46,12.6-7.09,4.85-1.62,10.17-2.43,15.94-2.43s11.09.81,15.94,2.43c4.85,1.62,9.05,3.98,12.6,7.09,3.54,3.11,6.3,6.87,8.27,11.28,1.97,4.42,2.95,9.43,2.95,15.02s-.98,10.48-2.95,14.89ZM859.64,151.3c-2.62-3.5-6.43-5.25-11.42-5.25s-8.79,1.75-11.41,5.25c-2.62,3.5-3.94,8.14-3.94,13.91,0,6.12,1.38,10.87,4.13,14.24,2.75,3.37,6.49,5.05,11.22,5.05s8.46-1.68,11.22-5.05c2.76-3.37,4.13-8.11,4.13-14.24,0-5.77-1.31-10.41-3.93-13.91Z"
           id="path25" />
      </g>
      <path
         class="cls-1"
         d="M204.78,220.42c-3.34,0-6.21-1.07-8.35-3.13-2.71-2.6-4.15-6.7-4.15-11.84,0-14.4,11.19-34.27,25.48-45.24l2.73-1.96c4.21-2.8,8.19-4.52,11.89-5.13.82-.14,1.59.42,1.73,1.23s-.42,1.59-1.23,1.73c-3.23.54-6.93,2.14-10.68,4.64l-2.65,1.9c-13.59,10.43-24.27,29.26-24.27,42.83,0,4.3,1.12,7.65,3.22,9.68,1.7,1.63,3.99,2.41,6.8,2.28.82-.03,1.53.61,1.56,1.44.03.83-.61,1.53-1.44,1.56-.22,0-.43.01-.64.01Z"
         id="path26" />
      <path
         class="cls-1"
         d="M229.39,169.39v13.58c0,.91-.63,2.01-1.49,2.63-.31.22-.63.36-.94.42-.28.05-.54.03-.78-.07-.46-.19-.73-.65-.73-1.24v-12.49c-9.46,7.77-16.87,21.09-16.87,30.81,0,10.39,8.45,12.78,18.84,5.34,10.39-7.44,18.84-21.95,18.84-32.34,0-9.72-7.41-12.42-16.87-6.62Z"
         id="path27" />
    </g>
  </g>
</svg>
