<svg width="136" height="152" viewBox="0 0 136 152" fill="none" xmlns="http://www.w3.org/2000/svg">
<path d="M122.684 120.617L77.9023 146.197C71.3633 149.932 63.3272 149.907 56.8083 146.137L10.7399 119.475C4.07068 115.615 -0.0199544 108.51 7.32045e-05 100.829L0.145273 49.589C0.170307 40.9521 4.8167 32.9861 12.3371 28.6902L58.085 2.55422C64.0833 -0.870497 71.4584 -0.850469 77.4367 2.60929L123.115 29.0457C130.56 33.3566 135.136 41.2975 135.111 49.8743L134.971 99.5527C134.946 108.255 130.264 116.281 122.684 120.612V120.617Z" fill="white"/>
<path d="M120.436 113.953L74.8232 140.194C70.1017 142.913 64.2937 142.888 59.5922 140.139L14.4101 113.723C9.62346 110.924 6.68442 105.772 6.70445 100.204L6.8847 48.5679C6.90472 42.5597 10.1141 37.017 15.3063 34.0279L59.7625 8.46274C64.6642 5.64386 70.6875 5.66389 75.5692 8.51782L120.256 34.6438C125.172 37.5177 128.192 42.81 128.172 48.5229L127.991 100.92C127.971 106.307 125.092 111.274 120.441 113.953H120.436Z" fill="#6E739F"/>
<path d="M122.713 43.456C122.188 42.4796 120.976 42.1141 120 42.6399L67.4924 70.8337L14.9902 42.6399C14.0138 42.1141 12.8022 42.4846 12.2765 43.456C11.7507 44.4323 12.1212 45.644 13.0926 46.1697L65.4296 74.2734V137.365C65.4296 138.472 66.3258 139.368 67.4324 139.368C68.5389 139.368 69.4351 138.472 69.4351 137.365V74.3385L121.892 46.1697C122.869 45.649 123.234 44.4323 122.708 43.456H122.713Z" fill="white"/>
<path d="M121.668 115.931L90.9103 139.378C87.3504 142.092 82.2234 139.554 82.2234 135.077V80.0767C82.2234 76.6019 83.8456 73.3274 86.6094 71.2245L121.668 44.5027" fill="#6E739F"/>
<path d="M80.2207 135.913V81.2732C80.2207 76.4215 82.4838 71.8452 86.3441 68.9012L120.451 42.9054C121.332 42.2345 122.589 42.4047 123.26 43.2859C123.931 44.1671 123.761 45.4239 122.879 46.0948L88.6673 72.1707C85.8685 74.3036 84.2262 77.6232 84.2262 81.143V134.602C84.2262 137.616 87.676 139.323 90.0743 137.496L120.456 114.339C121.337 113.668 122.594 113.838 123.265 114.719C123.936 115.6 123.766 116.857 122.884 117.528L91.4612 141.481C86.8548 144.991 80.2257 141.706 80.2257 135.918L80.2207 135.913Z" fill="white"/>
<path d="M102.531 110.363C100.859 110.363 99.4218 109.827 98.3503 108.796C96.9935 107.494 96.2725 105.441 96.2725 102.868C96.2725 95.6579 101.875 85.7092 109.03 80.2166L110.397 79.2353C112.505 77.8333 114.498 76.9721 116.35 76.6667C116.761 76.5966 117.146 76.877 117.216 77.2826C117.286 77.6881 117.006 78.0787 116.6 78.1488C114.983 78.4191 113.131 79.2202 111.253 80.472L109.926 81.4233C103.122 86.6455 97.7745 96.0734 97.7745 102.868C97.7745 105.021 98.3353 106.698 99.3867 107.714C100.238 108.531 101.384 108.921 102.791 108.856C103.202 108.841 103.557 109.161 103.573 109.577C103.588 109.993 103.267 110.343 102.852 110.358C102.741 110.358 102.636 110.363 102.531 110.363Z" fill="white"/>
<path d="M114.853 84.813V91.6124C114.853 92.068 114.538 92.6188 114.107 92.9292C113.952 93.0394 113.792 93.1095 113.637 93.1395C113.497 93.1645 113.366 93.1545 113.246 93.1044C113.016 93.0093 112.881 92.779 112.881 92.4836V86.23C108.144 90.1203 104.434 96.7895 104.434 101.656C104.434 106.858 108.665 108.055 113.867 104.33C119.069 100.605 123.3 93.3398 123.3 88.1376C123.3 83.2709 119.59 81.9191 114.853 84.823V84.813Z" fill="white"/>
</svg>
